<svg xmlns="http://www.w3.org/2000/svg" width="137.322" height="137.216" viewBox="0 0 137.322 137.216"><defs><style>.a{fill:#95a5a5;}.b{fill:#3f5c6c;}.c{fill:#bdc3c7;}.d{fill:#ff8373;}.e{fill:#ecf0f1;}.f{fill:#30419b;}</style></defs><g transform="translate(0 -0.195)"><rect class="a" width="37.882" height="21.013" transform="translate(49.708 111.651)"/><path class="b" d="M45.458.195H9.471C4.238.195,0,4.267,0,11.927v92.337c0,2.332,4.238,6.4,9.471,6.4H127.851c5.232,0,9.471-4.072,9.471-6.4V11.927C137.322,4.268,133.084.2,127.851.2H45.458Z"/><g transform="translate(0 99.825)"><path class="c" d="M119.917,468.415h61.558a7.1,7.1,0,0,1,7.1,7.1v2.368H112.814v-2.368A7.1,7.1,0,0,1,119.917,468.415Z" transform="translate(-82.035 -440.299)"/><path class="c" d="M137.322,365.364v7.505a9.283,9.283,0,0,1-9.471,9.068H9.471A9.283,9.283,0,0,1,0,372.869v-7.505H137.322Z" transform="translate(0 -365.364)"/></g><path class="d" d="M150.52,69.228h12.532a9.071,9.071,0,0,1,8.61,9.471v23.676a9.071,9.071,0,0,1-8.609,9.471H85.566a9.071,9.071,0,0,1-8.609-9.471V78.7a9.071,9.071,0,0,1,8.609-9.471Z" transform="translate(-55.954 -50.199)"/><g transform="translate(35.209 26.132)"><path class="e" d="M147.991,111.846h-2.368v-2.368a2.368,2.368,0,0,0-4.735,0v2.368H135.5l7.445-13.031a2.367,2.367,0,0,0-4.111-2.349l-9.471,16.573a2.367,2.367,0,0,0,2.056,3.542h9.471v4.735a2.368,2.368,0,1,0,4.735,0v-4.735h2.368a2.368,2.368,0,0,0,0-4.735Z" transform="translate(-129.049 -95.273)"/><path class="e" d="M312.872,111.846H310.5v-2.368a2.368,2.368,0,0,0-4.735,0v2.368h-5.389l7.445-13.031a2.367,2.367,0,0,0-4.111-2.349l-9.471,16.573a2.367,2.367,0,0,0,2.055,3.542h9.471v4.735a2.368,2.368,0,0,0,4.735,0v-4.735h2.368a2.368,2.368,0,1,0,0-4.735Z" transform="translate(-248.945 -95.273)"/><path class="e" d="M227.668,95.262h-4.735a7.111,7.111,0,0,0-7.1,7.1v14.206a7.111,7.111,0,0,0,7.1,7.1h4.735a7.111,7.111,0,0,0,7.1-7.1V102.365A7.111,7.111,0,0,0,227.668,95.262Zm2.368,21.309a2.37,2.37,0,0,1-2.368,2.368h-4.735a2.37,2.37,0,0,1-2.368-2.368V102.365A2.37,2.37,0,0,1,222.933,100h4.735a2.37,2.37,0,0,1,2.368,2.368Z" transform="translate(-192.153 -95.262)"/></g><path class="d" d="M93.59,268.822,84.12,283.028H81.752a4.749,4.749,0,0,1-4.735-4.735v-4.735a4.749,4.749,0,0,1,4.735-4.735Z" transform="translate(-56.004 -195.337)"/><g transform="translate(28.116 73.485)"><path class="f" d="M379.963,273.557v4.735a4.749,4.749,0,0,1-4.735,4.735H363.39l9.471-14.206h2.368A4.749,4.749,0,0,1,379.963,273.557Z" transform="translate(-292.361 -268.822)"/><path class="f" d="M124.36,268.822l-9.471,14.206H103.051l9.471-14.206Z" transform="translate(-103.051 -268.822)"/></g><path class="d" d="M167.749,268.822l-9.47,14.206H146.441l9.471-14.206Z" transform="translate(-106.487 -195.337)"/><path class="f" d="M211.139,268.822l-9.471,14.206H189.831l9.47-14.206Z" transform="translate(-138.039 -195.337)"/><path class="d" d="M254.529,268.822l-9.471,14.206H233.22l9.471-14.206Z" transform="translate(-169.59 -195.337)"/><path class="f" d="M297.919,268.822l-9.471,14.206H276.61l9.471-14.206Z" transform="translate(-201.142 -195.337)"/><path class="d" d="M341.309,268.822l-9.471,14.206H320l9.471-14.206Z" transform="translate(-232.694 -195.337)"/></g></svg>